<?xml version="1.0" encoding="utf-8"?>
<!-- Generator: Adobe Illustrator 25.4.1, SVG Export Plug-In . SVG Version: 6.00 Build 0)  -->
<svg version="1.1" id="Layer_1" xmlns="http://www.w3.org/2000/svg" xmlns:xlink="http://www.w3.org/1999/xlink" x="0px" y="0px"
	 viewBox="0 0 1366 768" style="enable-background:new 0 0 1366 768;" xml:space="preserve">
<style type="text/css">
	.st0{fill:#F4815B;}
	.st1{fill-rule:evenodd;clip-rule:evenodd;fill:#FF6C37;}
	.st2{fill-rule:evenodd;clip-rule:evenodd;fill:#FFFFFF;}
</style>
<path class="st0" d="M683.5,1536.8c636.4,0,1152.3-515.9,1152.3-1152.3S1319.9-767.8,683.5-767.8S-468.8-251.9-468.8,384.5
	S47.1,1536.8,683.5,1536.8z M683.5,1630C-4.4,1630-562,1072.4-562,384.5S-4.4-861,683.5-861S1929-303.4,1929,384.5
	S1371.4,1630,683.5,1630z"/>
<g>
	<path class="st1" d="M1513.7-246.5C1163.4-699.9,512-783.5,58.6-433.2C-394.7-82.9-478.3,568.5-128,1021.8
		c350.2,453.4,1001.6,537.1,1455,186.8C1780.4,858.4,1864,206.8,1513.7-246.5L1513.7-246.5z"/>
	<path class="st2" d="M896.8,37.6c-74.7,34.1-196.3,137.2-393.6,333.7l56.1,56.1l18.7,18.8L959.3,64.9c11.9-11.9,27-17.9,42.5-20.6
		C973.5,23.1,946.3,15,896.8,37.6 M1065,183.1L665.9,533.8c35.5,35.6,55,55,65,65.1C889,448.9,1039.5,295.9,1065,183.1 M383.3,493
		c0.6,1,1.2,0.9,1.8,0.8l161.7-34.9l-65.5-65.4l-97.8,97.7C383.2,491.4,382.7,491.8,383.3,493 M1116.4-48.9l135.3-135.3
		c-27.3-21.3-60.4-31.8-93.5-31.8c-39.1,0-78.2,14.8-107.6,44.3c-28.8,28.8-44.6,67-44.6,107.7s15.8,79,44.6,107.8
		c44.2,44.3,111.1,57,168.5,31.9L1116.5-26.8c-2.9-2.9-4.6-6.9-4.6-11C1111.8-42,1113.5-45.9,1116.4-48.9"/>
	<path class="st2" d="M1261.5-13.6c-2.7,0-5.4-1-7.7-2.8c-5-4.2-5.8-11.8-1.5-16.9c9.1-11,10.8-26.3,4.3-39
		c-2.9-5.9-0.5-13.1,5.4-16.1c5.9-2.9,13.1-0.5,16.1,5.4c10.6,21.2,7.7,46.8-7.5,65C1268.4-15.2,1265-13.6,1261.5-13.6
		 M1274.3-162.9L1149.4-37.8l97.6,97.6c6.8-4.8,13.1-10.2,19.1-16c28.8-28.8,44.6-67.1,44.6-107.8
		C1310.7-100.6,1297.9-135.2,1274.3-162.9 M981.3,86.8L601.1,467.1l43.7,43.7l402.6-353.6c10.1-8.9,15.9-21.3,16.3-34.7
		c0.4-13.5-4.6-26.2-14.1-35.8C1030.8,68,1000.2,68,981.3,86.8 M271.9,897.9c0,0,0.1,0,0.2-0.1c181.3-90.9,327.8-184.4,435.6-278
		l-61.5-61.4l-161.6,25.1l-320,320L267,1005.9c2.5,2.4,5,1.8,6.7,1c1.7-1,3.5-2.8,2.8-6.2L259,925.8
		C256.4,914.6,261.7,903.2,271.9,897.9 M234.8,1017.7l-92.2-92.2l-78.2,78.2c-0.3,0.2-0.6,0.6-0.3,1.4c0.3,0.9,0.9,1,1.2,1
		L234.8,1017.7z M526,542.2h0.3c0.3,0,0.9,0.1,1.2,0.1l90.9-11.8l-40.2-40.4L526,542.2z"/>
	<path class="st1" d="M1278.2-83c-2.9-5.9-10.2-8.4-16.2-5.4c-5.9,2.9-8.3,10.1-5.4,16.1c6.4,12.7,4.7,28-4.4,39
		c-4.3,5.1-3.5,12.7,1.6,16.9c2.2,1.8,4.9,2.8,7.7,2.8c3.5,0,6.8-1.6,9.2-4.4C1285.9-36.2,1288.8-61.8,1278.2-83"/>
</g>
</svg>
